PathFileType	4	(X/Y/Z)	pose2sim_0-675.trc
DataRate	CameraRate	NumFrames	NumMarkers	Units	OrigDataRate	OrigDataStartFrame	OrigNumFrames
50	50	6	22	m	50	507	676
Frame#	Time	Hip			RHip			RKnee			RAnkle			RBigToe			RSmallToe			RHeel			LHip			LKnee			LAnkle			LBigToe			LSmallToe			LHeel			Neck			Head			Nose			RShoulder			RElbow			RWrist			LShoulder			LElbow			LWrist			
		X1	Y1	Z1	X2	Y2	Z2	X3	Y3	Z3	X4	Y4	Z4	X5	Y5	Z5	X6	Y6	Z6	X7	Y7	Z7	X8	Y8	Z8	X9	Y9	Z9	X10	Y10	Z10	X11	Y11	Z11	X12	Y12	Z12	X13	Y13	Z13	X14	Y14	Z14	X15	Y15	Z15	X16	Y16	Z16	X17	Y17	Z17	X18	Y18	Z18	X19	Y19	Z19	X20	Y20	Z20	X21	Y21	Z21	X22	Y22	Z22	
507	10.14	0.1131686013509412	0.7892184315120006	-0.007921950069450286	0.022566477157310767	0.7804021626374802	0.0018411869339205087	-0.018953051078430216	0.42272088580048767	-0.03297354080843545	-0.07417431425934241	0.0772214422282394	-0.07028158159860717	-0.0855534653289277	0.03682541274870688	0.07705311497004513	-0.12988398007213692	0.03521921930184882	0.03278834229862895	-0.07223896409291738	0.038854583531907155	-0.10769484705844311	0.20717892256139744	0.7778219208845493	-0.020242806553637457	0.25225935400461774	0.41615339628775194	-0.06548142638899308	0.2792710153492823	0.07728144853084552	-0.08567432572202396	0.32407227318360554	0.03748213135906976	0.04236541723741421	0.3562747643094275	0.038156353052293826	-0.006692709274254171	0.26674023307155087	0.03788442940905999	-0.11323964467643106	0.1228278999846686	1.2868657562276973	0.012463122553850138	0.1325765249867627	1.5021868450149953	0.005294783420756337	0.14390887083586323	1.398255522856838	0.07629826858857293	-0.02527856199160336	1.2045830006274447	0.01567901746165842	-0.10354446817720957	0.9846152353214681	0.004203044309703167	-0.18238936236459297	0.7909895861065666	0.012586619534071874	0.2685292595747615	1.1991535620017941	-0.016181368743654254	0.341980876446155	0.9790841065311938	-0.014822653464767499	0.4144011030741394	0.7758304640385227	-0.02536762021170017
508	10.16	0.11524573929414997	0.7897794701610433	-0.007582259102229721	0.027522281065544826	0.7767606224927228	0.004067622982249515	-0.023835107035810613	0.4150757492208294	-0.0484741473305679	-0.07505158487111968	0.06924528562595045	-0.07350007812435604	-0.08697728983359537	0.03617669064999194	0.09046400480406748	-0.12991343588055648	0.03157193621150225	0.04585978584961611	-0.06901377382064934	0.023989834019085325	-0.09883623751119305	0.20850549769858295	0.7757970712536228	-0.016829186140248333	0.2530317676591956	0.4113768451927365	-0.06322383974357039	0.2779053827791906	0.0685528341068421	-0.09621514912902275	0.32182890287053173	0.036322297741095716	0.07115329695470705	0.3521921121144761	0.03498232862276355	0.013169548663890907	0.2622335999447464	0.025389759600031744	-0.11930623629117496	0.12274151650569466	1.2881700046387412	0.01380784497939984	0.13441725955698622	1.501139374435636	0.006341812459873807	0.1377950207435877	1.3996074221980737	0.07555656366001047	-0.026839534820786416	1.2045822757805857	0.013772357839472624	-0.1082729031817156	0.9765397504914066	0.00011010095666652468	-0.18418874022960904	0.7820717606717299	0.015035996937495402	0.27347794880475806	1.1967127132164586	-0.010402392994525176	0.3468412563824239	0.9727125474235826	-0.01665352419807983	0.4157653835143536	0.7755955376994483	-0.027244406296633213
509	10.18	0.11462528669235694	0.7878669037318727	-0.008419981563903249	0.023658395548958728	0.7800972519137707	0.0018941710792751989	-0.01953467438371823	0.42238817319865224	-0.03851792937502823	-0.07376324134409401	0.07403685205394563	-0.07234221495838429	-0.08826552256913599	0.038332024647116	0.07330205025027675	-0.13051497149066482	0.0364675907268408	0.03246743639185858	-0.07443142470297046	0.03545958572036784	-0.10949725238876995	0.207816890149506	0.7765304873638292	-0.0185279223406225	0.25270377950282735	0.41317203518143475	-0.070105932403283	0.27990348241397006	0.0749867004563832	-0.08359838539724722	0.32668856601051205	0.0375370935393228	0.03711100274749901	0.35848542845850706	0.039684116122378425	-0.00969960421605689	0.26646463104854534	0.03421260486360184	-0.1102886681495282	0.12552400171434128	1.2863040780440824	0.015323970336813564	0.13417861311030466	1.50245935223819	0.010924294776867523	0.14671435481708223	1.398273475812521	0.07441368108192697	-0.02542156535565428	1.2026933057761027	0.02197294404958224	-0.10519431727718107	0.9865364600414487	0.006593637703559291	-0.18517346525603873	0.7886795796085331	0.005399491447565948	0.2693057770079227	1.1972539794320733	-0.013751238304427552	0.3413178731440212	0.9774459827956934	-0.019579226751732313	0.4154753065342246	0.7754382675072793	-0.03130938406287846
510	10.2	0.11475783247720067	0.7903910021736016	-0.005169585286179542	0.025343945830475376	0.7829478640841263	0.0025257604523306622	-0.018952680148135455	0.42266893135034805	-0.036203914917313736	-0.07443412914535333	0.07527008306741513	-0.06761948814017109	-0.08570053943516116	0.03947934375725191	0.07103636340125419	-0.12805436238172463	0.03542282441804587	0.03440387543348675	-0.07343250024748191	0.036694979050132144	-0.104806358348271	0.20783660296657	0.7804819462650667	-0.015100626112357754	0.25264860722516674	0.4147240874313617	-0.06754109966073642	0.2792027942873497	0.07655957545685235	-0.08764510586545024	0.323774730176359	0.03465120484246004	0.04063504914217181	0.354097751593931	0.03790435114017144	-0.008524387889017559	0.2647170873185486	0.037138205242596985	-0.11280617114602796	0.12457018525902411	1.2865115464316332	0.02109741801695279	0.13395914347748958	1.5012433135111964	0.013864497718506332	0.14440968333170348	1.3970344304379152	0.08275092823062948	-0.025832239959830586	1.2030721644496987	0.028655551869176937	-0.10717588036414043	0.9832828198727018	0.006233383216249143	-0.18551711609113405	0.7880940658787388	0.007159386578844292	0.2692078201012167	1.1988915756333596	-0.0066086004561002045	0.34073814437422406	0.9785416189539232	-0.017297059144205772	0.4148221503686844	0.7784544011829503	-0.04069207670048399
511	10.22	0.11347607227285984	0.7892495342998814	-0.007681049382279095	0.02398372157203812	0.7806127800627322	0.0011292810435051032	-0.020586139519739678	0.4205022405188164	-0.03811312528351183	-0.07434959403331592	0.07573409800542999	-0.06624625670679848	-0.08716728026414633	0.040234287154435944	0.07856148198415187	-0.1311176056483252	0.035931666427653094	0.037400534759659	-0.0725791559437888	0.03610775152994258	-0.10568213757379726	0.20626109008680663	0.7791584215704626	-0.017279169094090913	0.2528373851760332	0.4160413310928834	-0.06160453195392875	0.27907592958796595	0.07438284233341856	-0.08387762011730095	0.32271943904122635	0.03855624542300146	0.04659591742190886	0.3529103357192439	0.038213774465153616	-0.004992258123577776	0.26726873304137344	0.03518839236268545	-0.11212485268861953	0.12453860383449529	1.2859744618816946	0.021947418573710655	0.13398095244903568	1.501892102446813	0.01425383162453524	0.13977202142543976	1.3957337705363475	0.07818554891926556	-0.02675387204628073	1.2015561518605047	0.03182232678502479	-0.10793962549676717	0.9810687227053453	0.009499723710680804	-0.18755050093632555	0.7859012457327308	0.00586543026851235	0.2725385370667001	1.1986443906076127	-0.009393957254261594	0.34010272023274657	0.9753370008314041	-0.024300312617272092	0.4131548952348235	0.7762193468370848	-0.04427135153050045
512	10.24	0.11451343166957548	0.7913610401410588	-0.003814284645934765	0.025762741664241254	0.7790985953553058	0.007767125166579312	-0.024462764709518005	0.41431218511998297	-0.041941461622377635	-0.07556140084717157	0.06731734650440867	-0.07082820093961147	-0.08902002549633536	0.03756012157340587	0.09221461627939939	-0.1327394924735101	0.03403739838758184	0.042417296468613176	-0.06761458310476644	0.02463924753509149	-0.09889203823744967	0.20739892979254562	0.778450931175481	-0.017000821113834236	0.25248964899695275	0.4120495945464137	-0.06579812065361788	0.27764531931351194	0.06493689267937312	-0.09347468121682953	0.3214152763409079	0.03792398366526684	0.07038131555867118	0.3527657888612868	0.03555234852038379	0.012164400008413604	0.26350662341968817	0.02093636216674814	-0.11287047954912492	0.12386466717756084	1.288325730212795	0.0158180866975026	0.13175923206021156	1.50245742795466	0.012426727502329754	0.13673031773351207	1.4006592625686674	0.07418186398324142	-0.027198363618230765	1.2038270493159786	0.02461366008969107	-0.10990030996758594	0.9785211494676844	0.007456224459365646	-0.1839221360663599	0.7836932603545446	0.0038311562057041374	0.27138634302389714	1.197993810549984	-0.010566516765529334	0.34435724157514047	0.9711095031133069	-0.019428327625799883	0.41299235560958575	0.7761429833223208	-0.043376632355204524
